<svg width="200" height="200" viewBox="0 0 200 200" fill="none" xmlns="http://www.w3.org/2000/svg">
<g clip-path="url(#clip0_86_760)">
<path d="M24.5926 155.642H177.747C182.901 155.642 187.116 151.426 187.116 146.275V38.5008C187.116 33.3473 182.9 29.1344 177.747 29.1344H24.5926C19.4332 29.1344 15.2234 33.3473 15.2234 38.5008V146.275C15.2234 151.426 19.4332 155.642 24.5926 155.642ZM27.4008 41.3094H174.939V143.461H27.4008V41.3094Z" fill="#FCEDA9"/>
<path d="M0 161.027V163.369C0 167.491 3.37148 170.865 7.49336 170.865H192.502C196.629 170.865 200 167.491 200 163.369V161.027H0Z" fill="#FCEDA9"/>
<path d="M99.9988 57.827C79.5488 57.827 62.9723 74.4047 62.9711 94.8563C62.9727 115.307 79.5488 131.886 99.9988 131.886C120.452 131.886 137.028 115.307 137.029 94.8563C137.028 74.4047 120.452 57.827 99.9988 57.827ZM77.0891 71.9465C80.4645 68.5727 84.5766 65.9488 89.1606 64.3211C86.9645 66.975 85.134 70.3797 83.6996 74.3164H74.943C75.6203 73.4945 76.3359 72.6996 77.0891 71.9465ZM72.4613 77.7898H82.5848C81.2813 82.4055 80.5004 87.6 80.3625 93.1207H67.6469C67.9422 87.5063 69.668 82.284 72.4613 77.7898ZM72.4613 111.922C69.668 107.428 67.9422 102.205 67.6473 96.591H80.3754C80.5145 102.106 81.2734 107.309 82.5742 111.922H72.4613ZM77.0891 117.768C76.3359 117.013 75.6199 116.218 74.943 115.396H83.7051C84.3246 117.098 85.0098 118.714 85.7754 120.199C86.7809 122.141 87.9109 123.885 89.152 125.391C84.5699 123.763 80.4633 121.137 77.0891 117.768ZM98.2649 127.212C97.7227 127.181 97.1836 127.14 96.65 127.085C95.7988 126.704 94.9547 126.18 94.1188 125.501C91.568 123.424 89.2051 119.907 87.4078 115.396H98.2649V127.212ZM98.2649 111.922H86.1953C84.8254 107.414 83.9797 102.189 83.8336 96.591H98.2652V111.922H98.2649ZM98.2649 93.1207H83.8457C83.9906 87.5231 84.8402 82.298 86.2113 77.7898H98.2649V93.1207ZM98.2649 74.3164H87.4227C87.8723 73.1906 88.3441 72.1008 88.8602 71.1051C90.4 68.1227 92.2125 65.7723 94.1188 64.2133C94.9547 63.532 95.7988 63.0074 96.65 62.627C97.1836 62.5715 97.7231 62.5305 98.2649 62.5055V74.3164ZM122.912 71.9465C123.665 72.6996 124.38 73.4941 125.057 74.3164H116.296C115.676 72.6141 114.989 70.9977 114.225 69.5133C113.22 67.5711 112.09 65.8273 110.848 64.3211C115.43 65.9488 119.537 68.575 122.912 71.9465ZM101.735 62.5059C102.277 62.5309 102.817 62.5746 103.349 62.6273C104.202 63.0109 105.046 63.5324 105.882 64.2137C108.434 66.291 110.796 69.8059 112.593 74.3168H101.736V62.5059H101.735ZM101.735 77.7898H113.805C115.175 82.2977 116.021 87.5231 116.167 93.1207H101.735V77.7898ZM101.735 96.5914H116.154C116.01 102.189 115.16 107.414 113.788 111.923H101.735V96.5914ZM105.882 125.501C105.046 126.18 104.202 126.701 103.349 127.085C102.817 127.14 102.277 127.181 101.735 127.212V115.396H112.577C112.128 116.521 111.656 117.611 111.14 118.607C109.601 121.589 107.788 123.943 105.882 125.501ZM122.912 117.768C119.536 121.14 115.423 123.763 110.839 125.391C113.036 122.737 114.864 119.332 116.3 115.396H125.057C124.38 116.218 123.666 117.013 122.912 117.768ZM127.54 111.922H117.415C118.719 107.307 119.5 102.112 119.638 96.591H132.353C132.058 102.205 130.334 107.428 127.54 111.922ZM132.353 93.1207H119.627C119.487 87.6059 118.729 82.4027 117.426 77.7898H127.54C130.334 82.284 132.058 87.5063 132.353 93.1207Z" fill="#FCEDA9"/>
</g>
<defs>
<clipPath id="clip0_86_760">
<rect width="200" height="200" fill="white"/>
</clipPath>
</defs>
</svg>
