<svg width="188" height="188" viewBox="0 0 188 188" fill="none" xmlns="http://www.w3.org/2000/svg">
<mask id="mask0_85_665" style="mask-type:luminance" maskUnits="userSpaceOnUse" x="0" y="0" width="188" height="188">
<path d="M188 0H0V188H188V0Z" fill="white"/>
<path d="M40.6951 60.4684L39.7219 44.8515C39.6911 44.3551 39.2791 43.9683 38.7819 43.9683H36.1905C35.7955 43.9683 35.4434 44.2143 35.307 44.5844L32.501 52.208C32.2016 53.0561 31.9413 53.8202 31.7131 54.5207C31.4947 53.8176 31.2469 53.0542 30.9607 52.2084L28.2759 44.5969C28.1433 44.2203 27.7874 43.9687 27.3882 43.9687H24.7968C24.3019 43.9687 23.8922 44.3513 23.8576 44.8447L22.7602 60.581C22.7417 60.8412 22.8328 61.0977 23.011 61.2887C23.1891 61.4796 23.4384 61.5881 23.6994 61.5881H25.637C26.1341 61.5881 26.5461 61.2013 26.577 60.7049L26.9969 53.9547C27.024 53.499 27.0508 53.0369 27.0749 52.5748C27.1596 52.8298 27.2462 53.0919 27.3374 53.3608L29.8825 60.8556C30.012 61.2374 30.3701 61.4943 30.7739 61.4943H32.3149C32.7107 61.4943 33.0644 61.2468 33.1999 60.8748L35.9774 53.241C36.1085 52.8832 36.2357 52.5319 36.3577 52.1866C36.3856 52.7379 36.4143 53.2776 36.4417 53.789L36.8383 60.7C36.8669 61.1983 37.2797 61.5873 37.7783 61.5873H39.763H39.7705C40.2906 61.5873 40.712 61.1659 40.712 60.6458C40.7113 60.5855 40.706 60.526 40.6951 60.4684Z" fill="black"/>
<path d="M164.775 60.4684L163.802 44.8515C163.771 44.3551 163.359 43.9683 162.862 43.9683H160.271C159.876 43.9683 159.523 44.2143 159.387 44.5844L156.581 52.208C156.282 53.0561 156.021 53.8202 155.793 54.5207C155.575 53.8176 155.327 53.0542 155.041 52.2084L152.356 44.5969C152.223 44.2203 151.867 43.9687 151.468 43.9687H148.877C148.382 43.9687 147.972 44.3513 147.938 44.8447L146.84 60.581C146.822 60.8412 146.913 61.0977 147.091 61.2887C147.269 61.4796 147.518 61.5881 147.779 61.5881H149.717C150.214 61.5881 150.626 61.2013 150.657 60.7049L151.077 53.9547C151.104 53.499 151.131 53.0369 151.155 52.5748C151.24 52.8298 151.326 53.0919 151.417 53.3608L153.963 60.8556C154.092 61.2374 154.45 61.4943 154.854 61.4943H156.395C156.791 61.4943 157.144 61.2468 157.28 60.8748L160.057 53.241C160.189 52.8832 160.316 52.5319 160.438 52.1866C160.466 52.7379 160.494 53.2776 160.522 53.789L160.918 60.7C160.947 61.1983 161.36 61.5873 161.858 61.5873H163.843H163.851C164.371 61.5873 164.792 61.1659 164.792 60.6458C164.791 60.5855 164.786 60.526 164.775 60.4684Z" fill="black"/>
</mask>
<g mask="url(#mask0_85_665)">
<mask id="mask1_85_665" style="mask-type:luminance" maskUnits="userSpaceOnUse" x="0" y="0" width="188" height="188">
<path d="M188 0H0V188H188V0Z" fill="white"/>
</mask>
<g mask="url(#mask1_85_665)">
<path d="M146.773 102.43C148.595 102.43 150.072 100.95 150.072 99.1235C150.072 97.2972 148.595 95.8169 146.773 95.8169C144.952 95.8169 143.475 97.2972 143.475 99.1235C143.475 100.95 144.952 102.43 146.773 102.43Z" fill="#FCEDA9"/>
<path d="M118.674 36.6279V36.1663C118.674 31.729 115.076 28.1321 110.639 28.1321H77.361C72.9235 28.1321 69.3267 31.729 69.3267 36.1663V36.6279C52.1431 24.7714 32.0224 17.6913 11.2315 15.9804C-3.74383 41.3581 -3.74383 72.9692 11.2315 98.3469C32.0529 96.5361 52.0935 89.5865 69.3267 77.6962V77.8275C69.3267 82.265 72.9235 85.8618 77.361 85.8618H79.8069C71.7425 107.387 67.3978 129.952 66.8924 152.993L66.8056 156.951L53.817 124.882C53.2749 123.543 51.619 122.976 50.3688 123.704L32.6892 134.016C33.9417 125.385 36.1592 116.891 39.2862 108.754C39.7291 107.601 39.3061 106.253 38.2161 105.673C36.9104 104.978 35.3377 105.594 34.8231 106.929C31.4423 115.705 29.0778 124.88 27.7944 134.201L27.2348 138.265C26.9664 140.215 29.1321 141.67 30.8369 140.676L50.3932 129.27L66.7248 169.593C67.2203 170.816 68.6284 171.443 69.9117 170.903C70.8013 170.529 71.3488 169.621 71.3702 168.656L71.7113 153.098C72.2177 129.997 76.6763 107.385 84.9611 85.8611H102.183C110.468 107.385 114.927 129.997 115.433 153.098L115.774 168.655C115.795 169.62 116.342 170.529 117.232 170.903C118.515 171.443 119.924 170.816 120.42 169.592L136.751 129.27L156.307 140.675C158.012 141.67 160.177 140.213 159.91 138.265L159.35 134.2C158.071 124.907 155.716 115.758 152.351 107.005C151.91 105.857 150.683 105.152 149.491 105.455C148.061 105.818 147.31 107.327 147.823 108.661C150.969 116.827 153.199 125.352 154.456 134.015L136.776 123.704C135.526 122.975 133.869 123.543 133.328 124.881L120.339 156.95L120.252 152.992C119.747 129.952 115.402 107.386 107.338 85.8615H110.639C115.076 85.8615 118.673 82.2646 118.673 77.8271V77.6959C135.906 89.5857 155.947 96.5357 176.768 98.3465C191.744 72.9688 191.744 41.3577 176.768 15.98C155.978 17.6917 135.857 24.7718 118.674 36.6279ZM55.2455 59.4775C53.7772 59.4775 52.6078 58.195 52.7906 56.6865C52.9432 55.428 54.0772 54.5173 55.3451 54.5173H69.3267V59.4775H55.2455ZM113.853 77.8278C113.853 79.6026 112.414 81.0415 110.639 81.0415H77.361C75.5863 81.0415 74.1474 79.6026 74.1474 77.8278V36.1667C74.1474 34.3919 75.5863 32.953 77.361 32.953H110.639C112.414 32.953 113.853 34.3919 113.853 36.1667V77.8278ZM132.655 59.4775H118.674V54.5173H132.754C134.223 54.5173 135.392 55.7999 135.209 57.3084C135.057 58.5665 133.923 59.4775 132.655 59.4775Z" fill="#FCEDA9"/>
<path d="M40.3737 102.43C42.1955 102.43 43.672 100.95 43.672 99.1235C43.672 97.2972 42.1955 95.8169 40.3737 95.8169C38.552 95.8169 37.0752 97.2972 37.0752 99.1235C37.0752 100.95 38.552 102.43 40.3737 102.43Z" fill="#FCEDA9"/>
<mask id="mask2_85_665" style="mask-type:luminance" maskUnits="userSpaceOnUse" x="81" y="44" width="26" height="25">
<path d="M106.053 44.5113H81.9502V68.6138H106.053V44.5113Z" fill="white"/>
</mask>
<g mask="url(#mask2_85_665)">
<path fill-rule="evenodd" clip-rule="evenodd" d="M94.0018 47.2738C88.8716 47.2738 84.7123 51.4327 84.7123 56.5632C84.7123 61.6937 88.8716 65.8527 94.0018 65.8527C99.1323 65.8527 103.292 61.6937 103.292 56.5632C103.292 51.4327 99.1323 47.2738 94.0018 47.2738ZM83.2061 56.5632C83.2061 50.6006 88.0395 45.7671 94.0018 45.7671C99.9644 45.7671 104.798 50.6006 104.798 56.5632C104.798 62.5254 99.9644 67.3589 94.0018 67.3589C88.0395 67.3589 83.2061 62.5254 83.2061 56.5632ZM94.0018 49.7843C94.418 49.7843 94.7553 50.1216 94.7553 50.5374V50.8555C96.3924 51.1488 97.7678 52.3791 97.7678 54.0527C97.7678 54.4685 97.4309 54.8058 97.0147 54.8058C96.5988 54.8058 96.2615 54.4685 96.2615 54.0527C96.2615 53.2048 95.3843 52.2949 94.0018 52.2949C92.6196 52.2949 91.7424 53.2048 91.7424 54.0527C91.7424 54.9005 92.6196 55.8101 94.0018 55.8101C95.9476 55.8101 97.7678 57.1483 97.7678 59.0738C97.7678 60.7473 96.3924 61.9776 94.7553 62.2709V62.5886C94.7553 63.0048 94.418 63.3421 94.0018 63.3421C93.5859 63.3421 93.2486 63.0048 93.2486 62.5886V62.2709C91.6112 61.9776 90.2358 60.7473 90.2358 59.0738C90.2358 58.6579 90.573 58.3206 90.9893 58.3206C91.4051 58.3206 91.7424 58.6579 91.7424 59.0738C91.7424 59.9216 92.6196 60.8312 94.0018 60.8312C95.3843 60.8312 96.2615 59.9216 96.2615 59.0738C96.2615 58.2259 95.3843 57.3163 94.0018 57.3163C92.0563 57.3163 90.2358 55.9778 90.2358 54.0527C90.2358 52.3791 91.6112 51.1488 93.2486 50.8555V50.5374C93.2486 50.1216 93.5859 49.7843 94.0018 49.7843Z" fill="#FCEDA9"/>
</g>
</g>
</g>
</svg>
