<svg width="30" height="30" viewBox="0 0 30 30" fill="none" xmlns="http://www.w3.org/2000/svg">
<path fill-rule="evenodd" clip-rule="evenodd" d="M14 22.5C18.1421 22.5 21.5 19.1421 21.5 15C21.5 10.8579 18.1421 7.5 14 7.5C9.85786 7.5 6.5 10.8579 6.5 15C6.5 19.1421 9.85786 22.5 14 22.5ZM14 20C16.7614 20 19 17.7614 19 15C19 12.2386 16.7614 10 14 10C11.2386 10 9 12.2386 9 15C9 17.7614 11.2386 20 14 20Z" fill="#EFCA7A"/>
<path d="M21.5 6.25C20.8096 6.25 20.25 6.80965 20.25 7.5C20.25 8.19035 20.8096 8.75 21.5 8.75C22.1904 8.75 22.75 8.19035 22.75 7.5C22.75 6.80965 22.1904 6.25 21.5 6.25Z" fill="#EFCA7A"/>
<path fill-rule="evenodd" clip-rule="evenodd" d="M1.06745 5.34508C0.25 6.94941 0.25 9.04961 0.25 13.25V16.75C0.25 20.9504 0.25 23.0506 1.06745 24.6549C1.7865 26.0661 2.93385 27.2135 4.34508 27.9325C5.94941 28.75 8.04961 28.75 12.25 28.75H15.75C19.9504 28.75 22.0506 28.75 23.6549 27.9325C25.0661 27.2135 26.2135 26.0661 26.9325 24.6549C27.75 23.0506 27.75 20.9504 27.75 16.75V13.25C27.75 9.04961 27.75 6.94941 26.9325 5.34508C26.2135 3.93385 25.0661 2.7865 23.6549 2.06745C22.0506 1.25 19.9504 1.25 15.75 1.25H12.25C8.04961 1.25 5.94941 1.25 4.34508 2.06745C2.93385 2.7865 1.7865 3.93385 1.06745 5.34508ZM15.75 3.75H12.25C10.1086 3.75 8.65281 3.75195 7.5276 3.84387C6.43155 3.93342 5.87105 4.09574 5.48005 4.29496C4.53924 4.77434 3.77434 5.53924 3.29496 6.48005C3.09574 6.87105 2.93342 7.43155 2.84387 8.5276C2.75195 9.65281 2.75 11.1086 2.75 13.25V16.75C2.75 18.8915 2.75195 20.3471 2.84387 21.4724C2.93342 22.5685 3.09574 23.129 3.29496 23.52C3.77434 24.4608 4.53924 25.2256 5.48005 25.705C5.87105 25.9042 6.43155 26.0666 7.5276 26.1561C8.65281 26.248 10.1086 26.25 12.25 26.25H15.75C17.8915 26.25 19.3471 26.248 20.4724 26.1561C21.5685 26.0666 22.129 25.9042 22.52 25.705C23.4608 25.2256 24.2256 24.4608 24.705 23.52C24.9042 23.129 25.0666 22.5685 25.1561 21.4724C25.248 20.3471 25.25 18.8915 25.25 16.75V13.25C25.25 11.1086 25.248 9.65281 25.1561 8.5276C25.0666 7.43155 24.9042 6.87105 24.705 6.48005C24.2256 5.53924 23.4608 4.77434 22.52 4.29496C22.129 4.09574 21.5685 3.93342 20.4724 3.84387C19.3471 3.75195 17.8915 3.75 15.75 3.75Z" fill="#EFCA7A"/>
</svg>
