<svg width="30" height="30" viewBox="0 0 30 30" fill="none" xmlns="http://www.w3.org/2000/svg">
<g clip-path="url(#clip0_14_65)">
<path d="M14.9996 0.000244141C6.71525 0.000654297 0.000703125 6.71544 0 14.9999C0.000703125 23.2843 6.71525 29.9991 14.9996 29.9995C23.2847 29.9991 29.9995 23.2843 30 14.9999C29.9995 6.71544 23.2847 0.000654297 14.9996 0.000244141ZM5.71916 5.71935C7.08674 4.35247 8.75203 3.28917 10.6091 2.62999C9.71947 3.70665 8.97785 5.08542 8.39678 6.67976H4.84992C5.12414 6.34606 5.41383 6.02474 5.71916 5.71935ZM3.84445 8.08601H7.9452C7.41738 9.95685 7.10086 12.0607 7.04502 14.2968H1.89416C2.0141 12.0231 2.71289 9.90739 3.84445 8.08601ZM3.84445 21.9138C2.71289 20.0924 2.0141 17.9767 1.89416 15.703H7.04988C7.10619 17.9368 7.41375 20.0443 7.94086 21.9138L3.84445 21.9138ZM5.71916 24.2803C5.41383 23.975 5.12408 23.6537 4.84986 23.32H8.39906C8.64984 24.0099 8.92752 24.6643 9.23766 25.2659C9.64512 26.0532 10.1024 26.7581 10.6057 27.3688C8.74992 26.7096 7.0858 25.6463 5.71916 24.2803ZM14.2968 28.1054C14.0773 28.0939 13.8591 28.0774 13.6426 28.055C13.2975 27.9003 12.9558 27.6888 12.6172 27.4127C11.5841 26.5714 10.6264 25.1469 9.89859 23.32H14.2967V28.1054H14.2968ZM14.2968 21.9138H9.40793C8.85264 20.0874 8.51051 17.9698 8.45121 15.703H14.2967V21.9138H14.2968ZM14.2968 14.2968H8.45566C8.51473 12.0286 8.8585 9.91284 9.4142 8.08601H14.2968L14.2968 14.2968ZM14.2968 6.67976H9.9051C10.0873 6.22331 10.2782 5.78257 10.4872 5.37927C11.1106 4.17077 11.8448 3.21774 12.6173 2.58692C12.9558 2.31095 13.2975 2.09942 13.6427 1.94474C13.8592 1.92235 14.0773 1.90583 14.2968 1.8944L14.2968 6.67976ZM26.1558 8.08601C27.2873 9.90739 27.9859 12.0232 28.1058 14.2968H22.9501C22.8938 12.0629 22.5862 9.95544 22.0589 8.08601H26.1558ZM24.2808 5.71935C24.5862 6.02468 24.8759 6.34606 25.1501 6.67976H21.6007C21.3499 5.98993 21.072 5.33532 20.7621 4.73386C20.3547 3.94653 19.8974 3.24159 19.3941 2.63093C21.2501 3.29052 22.914 4.35347 24.2808 5.71935ZM15.703 1.8944C15.9225 1.90583 16.1406 1.92276 16.3569 1.94474C16.702 2.09995 17.0438 2.31095 17.3825 2.58692C18.4159 3.42827 19.3733 4.8528 20.1011 6.6797H15.703V1.8944ZM15.703 8.08601H20.5918C21.1471 9.91243 21.4895 12.03 21.5486 14.2968H15.703V8.08601ZM15.703 15.703H21.5439C21.4849 17.9712 21.1412 20.0869 20.5854 21.9138H15.703V15.703ZM17.3825 27.4127C17.0438 27.6888 16.702 27.8998 16.3569 28.055C16.1406 28.077 15.9224 28.0939 15.7029 28.1054V23.32H20.0946C19.9124 23.7764 19.7215 24.2172 19.5126 24.6205C18.8892 25.829 18.155 26.782 17.3825 27.4127ZM24.2808 24.2803C22.9135 25.6472 21.2478 26.7106 19.3907 27.3697C20.2805 26.293 21.0216 24.9143 21.603 23.32H25.1501C24.8759 23.6537 24.5862 23.975 24.2808 24.2803ZM26.1558 21.9138H22.0543C22.5821 20.0429 22.8989 17.9387 22.9547 15.703H28.1058C27.9859 17.9767 27.2873 20.0924 26.1558 21.9138Z" fill="#EFCA7A"/>
</g>
<defs>
<clipPath id="clip0_14_65">
<rect width="30" height="30" fill="white"/>
</clipPath>
</defs>
</svg>
