<svg width="72" height="72" viewBox="0 0 72 72" fill="none" xmlns="http://www.w3.org/2000/svg">
<g clip-path="url(#clip0_10_554)">
<path d="M36 3.65625C44.6344 3.65625 52.7625 7.03125 58.8656 13.1344C64.9688 19.2375 68.3438 27.3656 68.3438 36C68.3438 44.6344 64.9688 52.7625 58.8656 58.8656C52.7625 64.9688 44.6344 68.3438 36 68.3438C27.3656 68.3438 19.2375 64.9688 13.1344 58.8656C7.03125 52.7625 3.65625 44.6344 3.65625 36C3.65625 27.3656 7.03125 19.2375 13.1344 13.1344C19.2375 7.03125 27.3656 3.65625 36 3.65625ZM36 0.84375C16.5938 0.84375 0.84375 16.5938 0.84375 36C0.84375 55.4062 16.5938 71.1562 36 71.1562C55.4062 71.1562 71.1562 55.4062 71.1562 36C71.1562 16.5938 55.4062 0.84375 36 0.84375Z" fill="#7D0A35"/>
<path d="M20.4746 48.1219L26.9434 41.6531C29.5871 44.3531 32.3996 45.9 35.8027 45.9C38.7277 45.9 40.584 44.4094 40.584 42.0188C40.584 39.6281 38.4184 38.1938 34.5371 38.1938H30.1777L28.6871 32.8219L37.2371 25.1156H23.034V16.8188H49.8934V24.1875L41.034 31.7813C46.3496 32.9625 50.6246 35.9156 50.6246 42.3281C50.6246 49.8656 44.5777 54.7031 36.309 54.7031C29.1371 54.7031 24.0746 52.1156 20.4746 48.1219Z" fill="#7D0A35"/>
</g>
<defs>
<clipPath id="clip0_10_554">
<rect width="72" height="72" fill="white"/>
</clipPath>
</defs>
</svg>
