<svg width="72" height="72" viewBox="0 0 72 72" fill="none" xmlns="http://www.w3.org/2000/svg">
<g clip-path="url(#clip0_10_538)">
<path d="M36 3.65625C44.6344 3.65625 52.7625 7.03125 58.8656 13.1344C64.9688 19.2375 68.3438 27.3656 68.3438 36C68.3438 44.6344 64.9688 52.7625 58.8656 58.8656C52.7625 64.9688 44.6344 68.3438 36 68.3438C27.3656 68.3438 19.2375 64.9688 13.1344 58.8656C7.03125 52.7625 3.65625 44.6344 3.65625 36C3.65625 27.3656 7.03125 19.2375 13.1344 13.1344C19.2375 7.03125 27.3656 3.65625 36 3.65625ZM36 0.84375C16.5938 0.84375 0.84375 16.5938 0.84375 36C0.84375 55.4062 16.5938 71.1562 36 71.1562C55.4062 71.1562 71.1562 55.4062 71.1562 36C71.1562 16.5938 55.4062 0.84375 36 0.84375Z" fill="#7D0A35"/>
<path d="M21.2061 46.2094L35.0998 35.6062C38.6154 32.9625 39.8811 31.1625 39.8811 28.9125C39.8811 26.5781 38.2498 25.1438 35.7467 25.1438C33.2436 25.1438 31.3029 26.5781 28.3779 29.925L21.4029 24.1313C25.3686 18.9844 29.3061 16.1719 36.5342 16.1719C44.6623 16.1719 50.2311 21.0094 50.2311 28.0969C50.2311 34.0312 47.1936 37.1813 41.6248 41.0906L35.2686 45.5344H50.5967V53.9156H21.2061V46.2094Z" fill="#7D0A35"/>
</g>
<defs>
<clipPath id="clip0_10_538">
<rect width="72" height="72" fill="white"/>
</clipPath>
</defs>
</svg>
