<svg width="72" height="72" viewBox="0 0 72 72" fill="none" xmlns="http://www.w3.org/2000/svg">
<g clip-path="url(#clip0_10_586)">
<path d="M36 3.65625C44.6344 3.65625 52.7625 7.03125 58.8656 13.1344C64.9688 19.2375 68.3438 27.3656 68.3438 36C68.3438 44.6344 64.9688 52.7625 58.8656 58.8656C52.7625 64.9688 44.6344 68.3438 36 68.3438C27.3656 68.3438 19.2375 64.9688 13.1344 58.8656C7.03125 52.7625 3.65625 44.6344 3.65625 36C3.65625 27.3656 7.03125 19.2375 13.1344 13.1344C19.2375 7.03125 27.3656 3.65625 36 3.65625ZM36 0.84375C16.5938 0.84375 0.84375 16.5938 0.84375 36C0.84375 55.4062 16.5938 71.1562 36 71.1562C55.4062 71.1562 71.1562 55.4062 71.1562 36C71.1562 16.5938 55.4062 0.84375 36 0.84375Z" fill="#7D0A35"/>
<path d="M20.3066 48.825L26.1848 41.9063C29.2223 44.4657 32.0629 45.9282 35.2129 45.9282C38.616 45.9282 40.6691 44.2407 40.6691 41.4844C40.6691 38.8407 38.4473 37.1813 35.2129 37.1813C32.9348 37.1813 31.0223 37.9688 29.2785 39.0375L23.1754 35.6344L24.2441 16.7906H49.0785V25.3125H32.3441L32.0348 30.9375C33.7223 30.15 35.4941 29.6157 37.9691 29.6157C44.6629 29.6157 50.7098 33.3282 50.7098 41.5125C50.7098 49.7813 44.3816 54.7313 35.3816 54.7313C28.7723 54.7032 24.1598 52.425 20.3066 48.825Z" fill="#7D0A35"/>
</g>
<defs>
<clipPath id="clip0_10_586">
<rect width="72" height="72" fill="white"/>
</clipPath>
</defs>
</svg>
