<svg width="150" height="150" viewBox="0 0 150 150" fill="none" xmlns="http://www.w3.org/2000/svg">
<g clip-path="url(#clip0_244_157)">
<path d="M107.77 127.112C103.575 117.038 95.1134 112.5 88.2589 112.5H88.125C86.8259 118.765 81.2411 123.268 74.8875 123.212C68.6196 123.155 63.1687 118.677 61.8884 112.5H61.7411C54.8866 112.5 46.425 117.038 42.1875 127.112C46.8696 130.039 58.5455 136.465 74.767 136.519C91.2375 136.575 103.096 130.034 107.77 127.112Z" fill="#EFCA7A"/>
<path d="M75 0C33.5786 0 0 33.5786 0 75C0 116.421 33.5786 150 75 150C116.421 150 150 116.421 150 75C149.952 33.5973 116.403 0.0482143 75 0ZM37.3339 130.345C8.73214 110.885 -0.334821 72.8357 16.4223 42.5679C17.1616 41.3223 18.758 40.8938 20.025 41.5955C21.292 42.2973 21.7688 43.8804 21.1045 45.1661C6.28929 71.9384 13.3768 105.528 37.7437 124.031C40.058 118.808 43.8295 114.367 48.608 111.236C45.0911 109.398 42.8812 105.766 42.8705 101.799V56.2634C42.8705 38.5125 57.2625 24.1205 75.0134 24.1205C92.7643 24.1205 107.156 38.5125 107.156 56.2634V101.799C107.143 105.763 104.933 109.396 101.419 111.23C106.197 114.362 109.969 118.808 112.283 124.031C130.955 109.827 139.937 86.25 135.447 63.2223C130.958 40.1946 113.775 21.7179 91.1357 15.5705C68.4964 9.42321 44.3277 16.6688 28.808 34.2616C27.8277 35.3705 26.1348 35.4777 25.0259 34.4973C23.917 33.517 23.8098 31.8241 24.7902 30.7152C41.9277 11.2259 68.7857 3.39375 93.7125 10.6179C118.642 17.8393 137.151 38.8179 141.214 64.4518C145.278 90.0857 134.151 115.741 112.679 130.321C107.847 133.634 93.6187 142.46 73.5429 142.023C55.2214 141.624 42.2839 133.736 37.3339 130.345Z" fill="#EFCA7A"/>
<path d="M95.0703 91.7142C94.1301 93.466 93.0533 95.1428 91.856 96.7312C90.7765 98.2258 89.622 99.6615 88.3926 101.036V107.143H96.4283C99.3881 107.143 101.785 104.745 101.785 101.786V82.4758C100.843 83.2901 99.6988 83.8339 98.472 84.0535C97.7274 85.899 96.4095 89.0517 95.0703 91.7142Z" fill="#EFCA7A"/>
<path d="M74.9996 109.821C72.7683 109.816 70.6014 109.09 68.8174 107.751L68.113 107.191C67.7192 106.888 67.3469 106.546 66.9639 106.227V109.821C66.9639 114.26 70.5612 117.857 74.9996 117.857C79.438 117.857 83.0353 114.26 83.0353 109.821V106.238C82.6523 106.556 82.2826 106.894 81.8915 107.199C81.7389 107.336 81.4415 107.566 81.179 107.764C79.3951 109.098 77.2282 109.821 74.9996 109.821Z" fill="#EFCA7A"/>
<path d="M99.713 64.5161C99.3192 64.7224 98.8746 64.8161 98.43 64.784C89.3282 64.1733 80.8692 59.8822 75.0005 52.9019C71.363 57.3724 66.563 60.7554 61.1308 62.6786C58.0639 63.8519 54.8362 64.5563 51.5576 64.7679C51.1317 64.7599 50.7112 64.6688 50.3201 64.5001C50.0603 64.3688 49.7764 64.2965 49.4844 64.2858C49.1951 64.2777 48.9166 64.3902 48.7157 64.5965C48.0728 65.2501 47.9308 66.9161 49.0558 69.1501C49.5085 70.0581 49.8942 70.867 50.1648 71.5849C50.8933 73.3206 51.2576 75.1876 51.2362 77.0679C51.1987 77.534 51.3219 77.9974 51.5898 78.3804C52.1308 78.7474 52.7817 78.9135 53.4326 78.8465C54.5416 78.8465 55.538 79.5295 55.9344 80.5661C55.9532 80.617 57.8657 85.5831 59.7166 89.3063C60.5469 90.7929 61.4737 92.226 62.4916 93.592C64.988 97.1251 67.9826 100.278 71.3871 102.948L72.0139 103.449C73.7764 104.78 76.2112 104.78 77.9737 103.449C78.1424 103.326 78.3273 103.181 78.4933 103.039C81.9353 100.345 84.9701 97.1626 87.496 93.5947C88.5192 92.234 89.446 90.801 90.2657 89.309C92.1407 85.559 94.0639 80.601 94.0826 80.5501C94.4791 79.5135 95.4755 78.8304 96.5844 78.8304C97.2326 78.9001 97.8835 78.734 98.4192 78.3617C98.6898 77.9813 98.8157 77.5179 98.7808 77.0545C98.7514 75.1554 99.1157 73.2724 99.8523 71.5233C100.104 70.851 100.49 70.042 100.94 69.1394C101.417 68.2688 101.706 67.3072 101.786 66.3188V66.2144C101.842 65.6304 101.668 65.0492 101.299 64.5938C100.843 64.2242 100.2 64.192 99.713 64.5161Z" fill="#EFCA7A"/>
<path d="M51.9317 59.3733C54.4442 59.1188 56.9139 58.5403 59.279 57.651C64.8692 55.7036 69.613 51.884 72.704 46.8349C73.2237 46.0795 74.0835 45.6269 74.9996 45.6269C75.9157 45.6269 76.7755 46.0795 77.2951 46.8349C81.9344 53.976 89.5844 58.6045 98.0648 59.3974C99.2514 58.9501 100.537 58.8349 101.785 59.0653V56.2501C101.785 41.4563 89.7933 29.4644 74.9996 29.4644C60.2058 29.4644 48.2139 41.4563 48.2139 56.2501V59.0679C49.4567 58.8322 50.7424 58.9367 51.9317 59.3733Z" fill="#EFCA7A"/>
<path d="M53.571 107.143H61.6067V101.036C60.3773 99.6615 59.2201 98.2231 58.1407 96.7258C56.9594 95.1321 55.8853 93.4606 54.9264 91.7249C53.5871 89.0463 52.2826 85.899 51.5407 84.0562C50.3085 83.8365 49.1594 83.2874 48.2139 82.4678V101.786C48.2139 104.745 50.6112 107.143 53.571 107.143Z" fill="#EFCA7A"/>
</g>
<defs>
<clipPath id="clip0_244_157">
<rect width="150" height="150" fill="white"/>
</clipPath>
</defs>
</svg>
